<?xml version="1.0" encoding="UTF-8" standalone="no"?>
<svg
   version="1.1"
   width="180"
   height="110"
   id="svg1774"
   sodipodi:docname="LOGO_v2_CROPPED.svg"
   inkscape:version="1.2.2 (b0a84865, 2022-12-01)"
   xmlns:inkscape="http://www.inkscape.org/namespaces/inkscape"
   xmlns:sodipodi="http://sodipodi.sourceforge.net/DTD/sodipodi-0.dtd"
   xmlns="http://www.w3.org/2000/svg"
   xmlns:svg="http://www.w3.org/2000/svg">
  <defs
     id="defs1778" />
  <sodipodi:namedview
     id="namedview1776"
     pagecolor="#ffffff"
     bordercolor="#000000"
     borderopacity="0.25"
     inkscape:showpageshadow="2"
     inkscape:pageopacity="0.0"
     inkscape:pagecheckerboard="0"
     inkscape:deskcolor="#d1d1d1"
     showgrid="false"
     inkscape:zoom="2.9077963"
     inkscape:cx="147.87831"
     inkscape:cy="42.643978"
     inkscape:window-width="1309"
     inkscape:window-height="456"
     inkscape:window-x="0"
     inkscape:window-y="38"
     inkscape:window-maximized="0"
     inkscape:current-layer="svg1774" />
  <path
     d="m 0.3561162,-0.61489779 c 55.3013998,0 110.6027938,0 167.5799938,0 0,10.34549969 0,20.69099979 0,31.34999979 -55.3014,0 -110.602794,0 -167.5799938,0 0,-10.3455 0,-20.691 0,-31.34999979 z"
     fill="#fcfdfe"
     id="path1594"
     style="stroke-width:0.285" />
  <path
     d="m 0.3561162,-0.61489779 c 55.3013998,0 110.6027938,0 167.5799938,0 0,10.34549969 0,20.69099979 0,31.34999979 -55.3014,0 -110.602794,0 -167.5799938,0 0,-10.3455 0,-20.691 0,-31.34999979 z M 3.8367547,4.8780707 c -0.4185985,0.9410643 -0.456,1.6353072 -0.4607975,2.6645305 -0.0019,0.1837053 -0.0038,0.3674116 -0.0057,0.5566839 -0.00475,0.604029 -0.0038,1.2078448 -0.00285,1.8118908 -9.5e-4,0.4219831 -0.00285,0.8439641 -0.00475,1.2659441 -0.00285,0.883297 -0.0019,1.76652 9.5e-4,2.649815 0.00285,1.129268 -0.00285,2.258283 -0.01083,3.387518 -0.0057,0.871177 -0.00475,1.742293 -0.0038,2.613481 4.75e-5,0.416207 -0.0019,0.832417 -0.00475,1.248609 -0.0038,0.58322 -9.5e-4,1.165976 0.0038,1.749183 4.75e-5,0.331125 9.5e-5,0.662251 1.425e-4,1.00341 0.175142,1.129217 0.5748165,1.743372 1.282842,2.630966 1.129835,0.753227 2.1017707,0.649105 3.4131507,0.642526 0.266171,9.14e-4 0.532351,0.0018 0.806588,0.0028 0.900343,0.0024 1.8006296,6.71e-4 2.7009636,-9.5e-4 0.648641,8.6e-4 1.297272,0.002 1.945913,0.0033 1.789012,0.0029 3.578014,0.0023 5.367035,0.001 1.729161,-6.29e-4 3.458323,0.0014 5.187484,0.0033 3.975133,0.0044 7.950256,0.0048 11.925398,0.0041 3.069127,-5.23e-4 6.138244,-2.3e-5 9.207371,0.0012 0.440496,1.72e-4 0.881002,3.43e-4 1.321498,5.14e-4 0.663736,2.58e-4 1.327473,5.18e-4 1.991219,7.79e-4 6.173565,0.0024 12.34714,0.0036 18.520715,0.0025 0.232874,-4.5e-5 0.465757,-8.9e-5 0.705689,-1.35e-4 1.180384,-2.3e-4 2.360778,-4.71e-4 3.541172,-7.16e-4 0.234441,-5e-5 0.468882,-9.8e-5 0.710429,-1.49e-4 0.474098,-9.8e-5 0.948195,-1.97e-4 1.422283,-2.98e-4 7.377738,-0.0015 14.755467,7.34e-4 22.133202,0.006 8.283768,0.0059 16.567538,0.0089 24.851318,0.0078 0.88279,-1.13e-4 1.76559,-2.16e-4 2.64839,-3.12e-4 0.21738,-2.7e-5 0.43474,-5.3e-5 0.65871,-7.9e-5 3.28564,-3.33e-4 6.57127,0.0015 9.85691,0.0046 3.73558,0.0034 7.47115,0.0039 11.20673,3.45e-4 1.90726,-0.0017 3.8145,-0.002 5.72177,0.0014 1.74425,0.003 3.48845,0.0023 5.23268,-0.0018 0.63271,-7.6e-4 1.26543,-6.1e-5 1.89814,0.0022 0.85685,0.0028 1.71352,4.99e-4 2.57036,-0.0032 0.24841,0.0021 0.49681,0.0042 0.75274,0.0063 1.33766,-0.0121 2.2144,-0.102893 3.30214,-0.968111 0.86074,-1.094969 0.96376,-1.938538 0.97015,-3.312499 0.002,-0.183705 0.004,-0.367412 0.006,-0.556684 0.005,-0.604029 0.004,-1.207845 0.003,-1.811891 9.5e-4,-0.421983 0.003,-0.843964 0.005,-1.265945 0.003,-0.883296 0.002,-1.766519 -9.5e-4,-2.649814 -0.003,-1.129269 0.003,-2.258283 0.0108,-3.387518 0.006,-0.871177 0.005,-1.742293 0.004,-2.613481 -4e-5,-0.416207 0.002,-0.8324171 0.005,-1.2486091 0.004,-0.5832203 9.5e-4,-1.1659759 -0.004,-1.7491828 -4e-5,-0.3311254 -9e-5,-0.6622507 -1.4e-4,-1.00341 -0.17626,-1.1362893 -0.55684,-1.7463147 -1.28284,-2.6307998 -0.78547,-0.479978 -1.37161,-0.6412975 -2.28686,-0.6417773 -0.2273,-0.00152 -0.45458,-0.00304 -0.68877,-0.00456 -0.24854,0.00124 -0.49707,0.00247 -0.75314,0.0038 -0.39903,-0.00133 -0.39903,-0.00133 -0.80612,-0.00275 -0.89811,-0.00238 -1.79616,-6.716e-4 -2.69427,9.5e-4 -0.64771,-8.597e-4 -1.29541,-0.00199 -1.94312,-0.00333 -1.78512,-0.00294 -3.57023,-0.00228 -5.35536,-0.00104 -1.7258,6.289e-4 -3.45159,-0.00143 -5.1774,-0.00333 -3.96695,-0.00437 -7.93389,-0.00484 -11.90083,-0.00408 -3.06274,5.225e-4 -6.12547,2.19e-5 -9.1882,-0.00124 -0.43966,-1.719e-4 -0.87932,-3.429e-4 -1.31898,-5.139e-4 -0.66249,-2.584e-4 -1.32497,-5.178e-4 -1.98745,-7.79e-4 -6.16125,-0.00237 -12.32251,-0.00361 -18.48376,-0.00247 -0.23238,4.46e-5 -0.46476,8.93e-5 -0.70418,1.349e-4 -1.177857,2.299e-4 -2.355697,4.712e-4 -3.533557,7.163e-4 -0.3509,7.31e-5 -0.3509,7.31e-5 -0.70889,1.482e-4 -0.47307,9.88e-5 -0.946145,1.976e-4 -1.419224,2.983e-4 -7.362471,0.00152 -14.724943,-7.344e-4 -22.087414,-0.00598 -8.267394,-0.00589 -16.534779,-0.00893 -24.802163,-0.00779 -0.88103,1.13e-4 -1.76206,2.156e-4 -2.64309,3.125e-4 -0.325413,3.9e-5 -0.325413,3.9e-5 -0.6574,7.89e-5 -3.278916,3.325e-4 -6.557831,-0.00152 -9.836756,-0.00456 -3.727753,-0.00342 -7.455486,-0.00389 -11.183239,-3.449e-4 -1.90322,0.00171 -3.806422,0.00199 -5.709652,-0.00143 -1.740542,-0.00304 -3.481037,-0.00228 -5.22158,0.00181 -0.63136,7.6e-4 -1.262721,6.08e-5 -1.894081,-0.00218 -0.855019,-0.00285 -1.7098666,-4.997e-4 -2.5648766,0.00323 -0.247864,-0.00209 -0.495738,-0.00418 -0.751117,-0.00627 -1.663287,0.014987 -2.7322082,0.2464417 -3.8087957,1.6159892 z"
     fill="#3e6ac8"
     id="path1596"
     style="stroke-width:0.285" />
  <path
     d="m 0.3561162,-0.61489779 c 55.3013998,0 110.6027938,0 167.5799938,0 0,10.34549969 0,20.69099979 0,31.34999979 -55.3014,0 -110.602794,0 -167.5799938,0 0,-10.3455 0,-20.691 0,-31.34999979 z M 2.6194152,2.8151219 C 2.4897307,3.0057936 2.3600462,3.1964652 2.2264287,3.3929148 2.0915952,3.5843208 1.9567712,3.7757277 1.8178527,3.9729344 1.1706082,5.0636161 1.1709027,5.9939549 1.1606712,7.2361702 c -0.0019,0.1882662 -0.0038,0.3765334 -0.0057,0.5705044 -0.0057,0.6228295 -0.00855,1.2456393 -0.01178,1.8684863 -9.5e-4,0.213325 -0.0019,0.4266511 -0.0038,0.6464411 -0.0057,1.129849 -0.00997,2.259689 -0.01273,3.389551 -0.00285,1.163069 -0.01292,2.325982 -0.024225,3.488996 -0.0076,0.897591 -0.00988,1.795147 -0.01083,2.692766 -9.5e-4,0.42847 -0.00475,0.856938 -0.00997,1.285378 -0.030305,2.60768 -0.021565,4.673913 1.7869215,6.723508 0.1642265,0.129687 0.3284435,0.259373 0.4976385,0.392989 0.247437,0.202244 0.247437,0.202244 0.4998615,0.408574 1.19909,0.80403 2.5179087,0.646978 3.9002817,0.644195 0.400454,8.77e-4 0.400454,8.77e-4 0.808992,0.0018 0.903022,0.0016 1.8060346,0.0012 2.7090576,7.97e-4 0.650579,7.35e-4 1.301167,0.0016 1.951746,0.0026 1.794408,0.0023 3.588815,0.0028 5.383232,0.003 1.734396,3.34e-4 3.468802,0.0023 5.203198,0.004 4.647922,0.0046 9.295845,0.0063 13.943767,0.0076 2.198101,6.65e-4 4.396192,0.0017 6.594292,0.0028 7.522005,0.0036 15.04401,0.0067 22.566015,0.0077 0.472321,6.3e-5 0.944642,1.26e-4 1.416963,1.9e-4 0.473471,6.2e-5 0.946941,1.25e-4 1.420412,1.88e-4 0.949886,1.26e-4 1.899781,2.53e-4 2.849667,3.82e-4 0.353277,4.7e-5 0.353277,4.7e-5 0.713688,9.5e-5 7.638294,0.001 15.276589,0.0056 22.914874,0.01222 8.072687,0.007 16.145387,0.01092 24.218097,0.01126 0.88584,4.9e-5 1.77169,1.1e-4 2.65754,1.81e-4 0.21811,1.6e-5 0.43625,3.2e-5 0.66098,4.8e-5 3.51323,3.28e-4 7.02644,0.0035 10.53968,0.0076 3.52998,0.0041 7.05995,0.005 10.58993,0.0028 1.91311,-0.0011 3.82618,-8.34e-4 5.73929,0.0031 1.75025,0.0036 3.50046,0.0033 5.25071,-1.68e-4 0.63427,-5.61e-4 1.26852,3.34e-4 1.90276,0.0028 0.86031,0.0031 1.72044,0.001 2.58073,-0.0024 0.37173,0.0032 0.37173,0.0032 0.75098,0.0066 1.74197,-0.01507 3.07101,-0.312825 4.50178,-1.375022 0.19563,-0.203898 0.19563,-0.203898 0.39522,-0.411915 0.13409,-0.134462 0.26818,-0.268924 0.40634,-0.40746 0.90388,-1.214489 1.00305,-2.383185 1.01239,-3.865105 0.002,-0.191128 0.004,-0.382258 0.006,-0.57918 0.006,-0.629003 0.007,-1.25792 0.008,-1.886946 0.002,-0.439786 0.004,-0.879571 0.006,-1.319356 0.004,-0.92114 0.005,-1.842249 0.004,-2.763394 -5e-5,-1.175844 0.008,-2.35149 0.0176,-3.527286 0.007,-0.908353 0.008,-1.81666 0.008,-2.725034 6.6e-4,-0.433239 0.003,-0.8664801 0.008,-1.2996951 0.0629,-3.5711102 0.0629,-3.5711102 -1.6703,-6.6007343 -1.70425,-1.559671 -3.50474,-1.6501034 -5.68862,-1.639756 -0.40037,-0.00152 -0.40037,-0.00152 -0.8088,-0.00304 -0.89768,-0.00266 -1.79531,-0.00123 -2.69299,1.33e-4 -0.64878,-0.00104 -1.29754,-0.00237 -1.94631,-0.00389 -1.78543,-0.00351 -3.57086,-0.00342 -5.3563,-0.00275 -1.72693,1.035e-4 -3.45387,-0.00247 -5.18082,-0.00494 -3.9689,-0.00551 -7.9378,-0.00712 -11.90671,-0.00741 -3.06462,-2.622e-4 -6.12923,-0.00143 -9.19385,-0.00323 -0.88189,-5.111e-4 -1.76378,-0.00104 -2.64569,-0.00152 -0.32885,-1.891e-4 -0.32885,-1.891e-4 -0.66435,-3.819e-4 -6.16716,-0.00351 -12.33432,-0.00579 -18.50147,-0.00551 -0.23255,8.5e-6 -0.46509,1.71e-5 -0.70468,2.66e-5 -1.178647,4.75e-5 -2.357287,1.035e-4 -3.535927,1.624e-4 -0.23409,1.14e-5 -0.46819,2.28e-5 -0.70937,3.42e-5 -0.473376,2.28e-5 -0.946761,4.66e-5 -1.420134,7.13e-5 -7.366414,3.496e-4 -14.7328,-0.00389 -22.099204,-0.011723 -8.274396,-0.00874 -16.548782,-0.013661 -24.823187,-0.013129 -0.882075,4.18e-5 -1.76415,7.03e-5 -2.646225,8.74e-5 -0.325793,1.04e-5 -0.325793,1.04e-5 -0.65816,1.99e-5 -3.496969,1.81e-5 -6.993919,-0.00361 -10.490878,-0.00855 -3.513604,-0.00485 -7.027188,-0.00542 -10.540792,-0.00162 -1.903923,0.0019 -3.80779,0.0019 -5.711704,-0.00304 -1.742167,-0.00446 -3.484239,-0.00371 -5.226396,0.00133 -0.630981,8.797e-4 -1.261961,-1.767e-4 -1.892923,-0.00333 -0.8565956,-0.00399 -1.7128776,-0.00104 -2.5694646,0.0037 -0.245917,-0.00285 -0.491834,-0.0057 -0.745199,-0.00855 C 5.5657752,0.96728645 4.0023127,1.4503155 2.6216207,2.8152869 Z"
     fill="#fbfefe"
     id="path1598"
     style="stroke-width:0.285" />
  <path
     d="m 166.15486,3.0544773 c 1.05085,1.4595192 1.28242,2.5144885 1.27596,4.3087459 8e-5,0.1947918 1.7e-4,0.3895845 2.5e-4,0.5902787 -4e-4,0.6399789 -0.005,1.279861 -0.01,1.919822 -9.5e-4,0.4452471 -0.002,0.8904951 -0.003,1.3357421 -0.002,1.169001 -0.008,2.337961 -0.0141,3.506945 -0.006,1.194018 -0.009,2.388042 -0.0113,3.582069 -0.006,2.340693 -0.0159,4.681352 -0.0278,7.022022 -0.1881,0 -0.3762,0 -0.57,0 -0.1881,0.28215 -0.3762,0.5643 -0.57,0.855 -0.0941,-0.3762 -0.1881,-0.7524 -0.285,-1.14 -0.1881,0 -0.3762,0 -0.57,0 -0.003,-0.250974 -0.006,-0.501949 -0.009,-0.760527 -0.0279,-2.365137 -0.0572,-4.730254 -0.0878,-7.095356 -0.0157,-1.215923 -0.031,-2.431848 -0.045,-3.647791 -0.0136,-1.173439 -0.0285,-2.346853 -0.0444,-3.520263 -0.006,-0.4476911 -0.0111,-0.8953881 -0.016,-1.3430912 -0.007,-0.627038 -0.0155,-1.2540313 -0.0244,-1.8810427 -0.005,-0.3569416 -0.009,-0.7138823 -0.0134,-1.0816396 -0.0366,-0.7373758 -0.11181,-1.3449559 -0.32992,-2.0452892 -1.68643,-0.2437985 -3.31932,-0.3265302 -5.02193,-0.32452 -0.40308,-0.00124 -0.40308,-0.00124 -0.81432,-0.00247 -0.90041,-0.00238 -1.80081,-0.00276 -2.70123,-0.00314 -0.65205,-0.00133 -1.30411,-0.00275 -1.95616,-0.00427 -1.7918,-0.00389 -3.58359,-0.00598 -5.37539,-0.00779 -1.7338,-0.00209 -3.46758,-0.00542 -5.20138,-0.00874 -3.54615,-0.00674 -7.0923,-0.012255 -10.63846,-0.016986 -3.51087,-0.00465 -7.02173,-0.00996 -10.53259,-0.015998 -0.21834,-3.753e-4 -0.43668,-7.505e-4 -0.66163,-0.00114 -1.10885,-0.0019 -2.21769,-0.0038 -3.32653,-0.00579 -7.85283,-0.013614 -15.70567,-0.025916 -23.558495,-0.037459 -7.628671,-0.01122 -15.257333,-0.023019 -22.886004,-0.035625 -0.352754,-5.824e-4 -0.352754,-5.824e-4 -0.712642,-0.00114 -2.361691,-0.00389 -4.723381,-0.00779 -7.085072,-0.011732 -4.810999,-0.00798 -9.621989,-0.015893 -14.432979,-0.02375 -0.331797,-5.415e-4 -0.331797,-5.415e-4 -0.670301,-0.00114 -14.769954,-0.02408 -29.539918,-0.046333 -44.3098808,-0.068305 0,-0.3762 0,-0.7524 0,-1.14 0.5643,0 1.1286002,0 1.7100002,0 0,-0.1881 0,-0.3762 0,-0.57 14.6904856,-0.032062 29.3809726,-0.063783 44.0714686,-0.093584 0.217407,-4.418e-4 0.434815,-8.826e-4 0.658815,-0.00133 4.724806,-0.00959 9.449622,-0.019105 14.174428,-0.028557 2.317031,-0.00466 4.634062,-0.00931 6.951093,-0.013946 0.230574,-4.636e-4 0.461149,-9.272e-4 0.698706,-0.00143 7.474144,-0.015029 14.948288,-0.030989 22.422429,-0.047443 7.680354,-0.016901 15.360724,-0.03286 23.041084,-0.047614 1.08469,-0.00209 2.16937,-0.00418 3.25406,-0.00627 0.21348,-4.133e-4 0.42696,-8.265e-4 0.64691,-0.00123 3.43711,-0.00665 6.87421,-0.014374 10.31132,-0.02243 3.45506,-0.00807 6.91013,-0.015105 10.36519,-0.021052 1.87219,-0.00323 3.74437,-0.00703 5.61655,-0.012018 1.71356,-0.00456 3.42712,-0.00779 5.14068,-0.00997 0.6203,-0.00104 1.24059,-0.00257 1.86087,-0.00456 0.84279,-0.00276 1.68557,-0.00361 2.52836,-0.00408 0.24108,-0.00123 0.48216,-0.00238 0.73056,-0.00361 5.15429,0.00522 5.15429,0.00522 7.05622,1.9936472 z"
     fill="#326be3"
     id="path1600"
     style="stroke-width:0.285" />
  <path
     d="m 166.51111,3.0901023 c 0.57,0.285 0.57,0.285 1.425,2.565 0,8.2763997 0,16.5527997 0,25.0799997 -55.3014,0 -110.602794,0 -167.5799938,0 0,-1.881 0,-3.762 0,-5.7 0.28215,-0.28215 0.5643,-0.5643 0.855,-0.855 0.059185,0.185896 0.118294,0.371791 0.1792365,0.563321 0.6320635,1.793048 1.32563,2.971697 2.9557635,3.996679 1.139392,0.379796 2.2325092,0.324849 3.4204562,0.322457 0.400453,8.77e-4 0.400453,8.77e-4 0.808991,0.0018 0.903023,0.0016 1.8060356,0.0012 2.7090576,7.97e-4 0.650579,7.35e-4 1.301168,0.0016 1.951747,0.0026 1.794407,0.0023 3.588815,0.0028 5.383232,0.003 1.734396,3.34e-4 3.468801,0.0023 5.203197,0.004 4.647923,0.0046 9.295845,0.0063 13.943768,0.0076 2.1981,6.65e-4 4.396191,0.0017 6.594292,0.0028 7.522005,0.0036 15.04401,0.0067 22.566015,0.0077 0.472321,6.3e-5 0.944642,1.26e-4 1.416963,1.9e-4 0.47347,6.2e-5 0.946941,1.25e-4 1.420411,1.88e-4 0.949886,1.26e-4 1.899782,2.53e-4 2.849668,3.82e-4 0.353276,4.7e-5 0.353276,4.7e-5 0.713687,9.5e-5 7.638295,0.001 15.276589,0.0056 22.914882,0.01222 8.072687,0.007 16.145377,0.01092 24.218077,0.01126 0.88585,4.9e-5 1.7717,1.1e-4 2.65754,1.81e-4 0.21813,1.6e-5 0.43626,3.2e-5 0.66099,4.8e-5 3.51324,3.28e-4 7.02645,0.0035 10.53968,0.0076 3.52999,0.0041 7.05996,0.005 10.58994,0.0028 1.91311,-0.0011 3.82618,-8.34e-4 5.73929,0.0031 1.75025,0.0036 3.50046,0.0033 5.25071,-1.68e-4 0.63426,-5.61e-4 1.26851,3.34e-4 1.90276,0.0028 0.8603,0.0031 1.72043,10e-4 2.58072,-0.0024 0.37174,0.0032 0.37174,0.0032 0.75099,0.0066 1.91792,-0.01659 3.25345,-0.37689 4.75449,-1.644437 1.10855,-1.330259 1.26496,-2.434127 1.2672,-4.143633 9.5e-4,-0.192502 0.002,-0.385005 0.003,-0.583342 0.003,-0.633121 8.5e-4,-1.266152 -9.5e-4,-1.899275 3.8e-4,-0.441833 9.3e-4,-0.883667 0.002,-1.325501 8.3e-4,-0.92473 -3.8e-4,-1.84943 -0.003,-2.774157 -0.003,-1.183539 -9.5e-4,-2.367004 0.002,-3.550541 0.002,-0.911983 9.5e-4,-1.823948 -8e-5,-2.735932 -3.8e-4,-0.436325 9e-5,-0.8726521 9.5e-4,-1.3089741 0.002,-0.6104638 -7.7e-4,-1.2208075 -0.004,-1.8312613 -4.5e-4,-0.3469476 -9.1e-4,-0.6938943 -9.5e-4,-1.0513555 -0.0714,-0.9070002 -0.28215,-1.5183527 -0.64238,-2.3441526 0,-0.28215 0,-0.5643 0,-0.855 z"
     fill="#f0f7fe"
     id="path1602"
     style="stroke-width:0.285" />
  <path
     d="m 165.65611,26.175102 c -0.0535,0.676875 -0.0535,0.676875 -0.285,1.425 -0.7125,0.338438 -0.7125,0.338438 -1.425,0.57 -0.094,0.1881 -0.1881,0.3762 -0.285,0.57 -52.38585,0 -104.771694,0 -158.7449938,0 0,-0.1881 0,-0.3762 0,-0.57 -0.47025,-0.09405 -0.9405,-0.1881 -1.425,-0.285 0.1881,-0.47025 0.3762,-0.9405 0.57,-1.425 0.09405,0.1881 0.1881,0.3762 0.285,0.57 1.313755,0.408065 2.6998242,0.326113 4.0617152,0.32452 0.401613,0.0012 0.401613,0.0012 0.811338,0.0025 0.9022056,0.0024 1.8044016,0.0028 2.7066066,0.0031 0.65132,0.0013 1.30264,0.0028 1.953951,0.0043 1.793733,0.0039 3.587456,0.006 5.38118,0.0078 1.734453,0.0021 3.468906,0.0054 5.203368,0.0087 3.548431,0.0067 7.096871,0.01226 10.645311,0.01699 3.513955,0.0047 7.027919,0.0099 10.541874,0.016 0.218396,3.75e-4 0.436791,7.51e-4 0.661808,0.0011 1.109106,0.0019 2.218212,0.0038 3.327318,0.0058 7.858049,0.01361 15.716097,0.02593 23.574155,0.03746 7.634514,0.01121 15.269018,0.02302 22.903532,0.03562 0.35292,5.82e-4 0.35292,5.82e-4 0.71298,0.0011 2.36278,0.0039 4.725567,0.0078 7.088357,0.01173 4.81337,0.008 9.62674,0.01589 14.44011,0.02375 0.22133,3.61e-4 0.44264,7.23e-4 0.67067,0.0011 14.7819,0.02413 29.56381,0.04638 44.34572,0.06835 0,-0.28215 0,-0.5643 0,-0.855 1.22009,-0.923306 1.22009,-0.923306 2.28,-0.57 z"
     fill="#306be5"
     id="path1604"
     style="stroke-width:0.285" />
  <path
     d="m 23.512366,11.657915 c 0.987962,0.696065 1.406019,1.383542 1.63875,2.547187 0.05396,1.313917 -0.118579,2.279705 -0.78375,3.42 -0.727254,0.64645 -1.097507,0.830782 -2.06625,0.855 -0.623438,-0.285 -0.623438,-0.285 -1.14,-0.57 -0.1881,0.09405 -0.3762,0.1881 -0.57,0.285 -0.855,0.05344 -0.855,0.05344 -1.71,0 -0.57,-0.57 -0.57,-0.57 -0.603402,-1.209023 0.104547,-1.136487 0.184433,-1.989411 0.781527,-2.976914 0.963157,-0.532274 1.616387,-0.300161 2.671875,-0.08906 0.28215,-0.09405 0.5643,-0.1881 0.855,-0.285 -0.09405,1.3167 -0.1881,2.6334 -0.285,3.99 1.14,-0.4275 1.14,-0.4275 1.425,-1.14 0.115928,-1.058246 0.136106,-2.078164 0,-3.135 -0.652479,-0.736666 -1.084112,-0.813699 -2.040648,-0.92959 -1.34159,-0.06495 -2.330711,0.0087 -3.374352,0.92959 -1.140133,1.533284 -0.992237,3.301053 -0.855,5.13 0.09405,0.28215 0.1881,0.5643 0.285,0.855 0.97545,0.406439 2.023158,0.313219 3.06375,0.302813 0.333583,-0.0026 0.667166,-0.0051 1.010857,-0.0078 0.254229,-0.0033 0.508459,-0.0067 0.770393,-0.01002 0,0.28215 0,0.5643 0,0.855 -1.191082,0.595539 -2.692994,0.410298 -3.99,0.285 -1.076274,-0.413323 -1.639206,-1.033811 -2.28,-1.995 -0.221018,-1.963283 -0.158213,-3.703022 0.855,-5.415 1.604493,-2.005612 3.927309,-2.481361 6.34125,-1.692187 z"
     fill="#4e74cb"
     id="path1606"
     style="stroke-width:0.285" />
  <path
     d="m 86.426116,12.495102 c 0.971422,0.604441 1.656952,1.173661 1.995,2.28 0.134624,1.391077 0.148969,2.00261 -0.516563,3.241875 -0.627066,0.752477 -1.090448,1.242561 -2.072928,1.433906 -1.260166,0.05161 -1.80709,0.0076 -2.843322,-0.774843 -0.729144,-1.069586 -0.749768,-2.172145 -0.694687,-3.435586 0.223136,-1.174954 0.688265,-1.664857 1.5675,-2.460352 0.883642,-0.441819 1.589996,-0.367627 2.565,-0.285 z"
     fill="#f6f6f6"
     id="path1608"
     style="stroke-width:0.285" />
  <path
     d="m 3.7761162,2.5201023 c 0.28215,0.09405 0.5643,0.1881 0.855,0.285 0,0.1881 0,0.3762 0,0.57 -0.28215,0.141075 -0.28215,0.141075 -0.57,0.285 -0.2082685,0.659508 -0.3993895,1.3247626 -0.57,1.995 -0.1881,0 -0.3762,0 -0.57,0 0.0038,0.2366925 0.0076,0.473384 0.01083,0.717249 0.03363,2.2309059 0.067165,4.4618127 0.100662,6.6927217 0.017195,1.146922 0.034485,2.293843 0.051775,3.440764 0.01672,1.106895 0.033345,2.213792 0.049875,3.32069 0.00665,0.422242 0.01273,0.844485 0.019095,1.266727 0.00855,0.591521 0.017765,1.183044 0.0266,1.774567 0.0076,0.505035 0.0076,0.505035 0.01539,1.020271 0.00855,0.667293 0.01083,1.334664 0.01083,2.00201 -0.423225,0.141075 -0.423225,0.141075 -0.855,0.285 0,-0.1881 0,-0.3762 0,-0.57 -0.1881,0 -0.3762,0 -0.57,0 -0.3040665,-0.993267 -0.322905,-1.911637 -0.326401,-2.947343 -0.00285,-0.549298 -0.00285,-0.549298 -0.0057,-1.109693 -4.37e-4,-0.398846 -7.505e-4,-0.797692 -9.5e-4,-1.196538 -9.215e-4,-0.410293 -0.0019,-0.820584 -0.00285,-1.230876 -0.0019,-0.859338 -0.0019,-1.718668 -0.0019,-2.578008 2.85e-5,-1.099518 -0.0038,-2.198984 -0.00855,-3.298491 -0.00285,-0.847192 -0.0038,-1.694371 -0.0038,-2.541569 -3.325e-4,-0.405304 -0.0019,-0.8106081 -0.0038,-1.2159071 -0.00285,-0.567444 -0.0019,-1.1349046 -2.565e-4,-1.7023548 -3.99e-4,-0.3224918 -8.075e-4,-0.6449835 -9.5e-4,-0.9772479 0.072295,-0.8898375 0.2147285,-1.5082533 0.6404615,-2.2919719 0.28215,-0.09405 0.5643,-0.1881 0.855,-0.285 0.052915,-0.3438706 0.052915,-0.3438706 0.106875,-0.6946875 0.058805,-0.2410036 0.1175625,-0.4820063 0.178125,-0.7303125 0.1881,-0.09405 0.3762,-0.1881 0.57,-0.285 z"
     fill="#326be1"
     id="path1610"
     style="stroke-width:0.285" />
  <path
     d="m 39.401116,11.070102 c 0.3762,0 0.7524,0 1.14,0 0.09405,0.9405 0.1881,1.881 0.285,2.85 0.1881,-0.09405 0.3762,-0.1881 0.57,-0.285 0.979687,-0.08906 0.979687,-0.08906 1.995,0 0.622487,0.61675 0.835107,1.019761 0.978576,1.887012 0.0019,1.255127 -0.0098,2.155848 -0.568889,3.296426 -0.941982,0.700446 -1.543332,0.665164 -2.689687,0.516562 -0.1881,-0.1881 -0.3762,-0.3762 -0.57,-0.57 -0.09405,0.1881 -0.1881,0.3762 -0.285,0.57 -0.28215,0 -0.5643,0 -0.855,0 0,-2.72745 0,-5.4549 0,-8.265 z"
     fill="#5179cd"
     id="path1612"
     style="stroke-width:0.285" />
  <path
     d="m 55.842053,13.581665 c 0.504232,0.01157 0.504232,0.01157 1.018657,0.02338 0.257535,0.0099 0.515071,0.01984 0.780406,0.03006 0,0.28215 0,0.5643 0,0.855 -0.28215,0 -0.5643,0 -0.855,0 0.07059,0.258638 0.141075,0.517275 0.21375,0.78375 0.07125,0.92625 0.07125,0.92625 -0.374063,1.603125 -0.870247,0.580168 -1.377433,0.574783 -2.404687,0.463125 -0.1881,-0.09405 -0.3762,-0.1881 -0.57,-0.285 0.09405,0.28215 0.1881,0.5643 0.285,0.855 0.257906,0.01598 0.257906,0.01598 0.521018,0.03228 2.262368,0.186098 2.262368,0.186098 3.183982,1.107715 -0.09978,0.738392 -0.183122,1.285287 -0.626782,1.893691 -0.707693,0.532689 -1.20327,0.500261 -2.080718,0.493184 -0.273334,0.0022 -0.546668,0.0044 -0.828286,0.0067 -0.739214,-0.113521 -0.739214,-0.113521 -1.270245,-0.503169 -0.323969,-0.465352 -0.323969,-0.465352 -0.234907,-1.177852 0.09699,-0.352687 0.09699,-0.352687 0.195938,-0.7125 0,-0.28215 0,-0.5643 0,-0.855 0.04702,-0.258637 0.09405,-0.517275 0.1425,-0.78375 0.174439,-0.943367 0.174439,-0.943367 0.106875,-1.977187 0.03563,-0.944063 0.03563,-0.944063 0.346227,-1.427227 0.811481,-0.55426 1.481392,-0.454054 2.450335,-0.425273 z"
     fill="#4973ca"
     id="path1614"
     style="stroke-width:0.285" />
  <path
     d="m 22.301116,12.210102 c 0.689329,0.330304 1.175121,0.605118 1.71,1.14 0.04322,0.50339 0.06327,1.00888 0.07125,1.514063 0.0076,0.275169 0.01473,0.550339 0.02223,0.833847 -0.107398,0.903905 -0.302927,1.292055 -0.948518,1.92709 -0.28215,0 -0.5643,0 -0.855,0 -0.05263,-2.681857 -0.05263,-2.681857 0.285,-3.99 -0.1881,0 -0.3762,0 -0.57,0 -0.09405,0.1881 -0.1881,0.3762 -0.285,0.57 -0.311543,-0.06466 -0.623086,-0.129319 -0.944063,-0.195937 -1.002744,-0.196627 -1.002744,-0.196627 -1.531875,0.240468 -0.484281,0.680302 -0.516211,1.17559 -0.57,2.003907 -0.01872,0.2568 -0.03743,0.513601 -0.05681,0.778183 -0.01064,0.195815 -0.02128,0.39163 -0.0323,0.593379 0.5643,0.1881 1.1286,0.3762 1.71,0.57 -0.28215,0.3762 -0.5643,0.7524 -0.855,1.14 0.9405,0.09405 1.881,0.1881 2.85,0.285 0,0.09405 0,0.1881 0,0.285 -0.546164,0.01546 -1.092443,0.02648 -1.63875,0.03562 -0.30419,0.0067 -0.608389,0.01322 -0.921794,0.02004 -0.853984,-0.05531 -1.29865,-0.149047 -1.99937,-0.625661 -0.890559,-1.335843 -0.733856,-2.7113 -0.57,-4.275 0.348355,-1.078962 0.910955,-1.79213 1.763437,-2.547187 1.13716,-0.429593 2.165516,-0.47035 3.366563,-0.302812 z"
     fill="#eaf6fd"
     id="path1616"
     style="stroke-width:0.285" />
  <path
     d="m 26.861116,13.635102 c 0.28215,0 0.5643,0 0.855,0 0.09405,0.1881 0.1881,0.3762 0.285,0.57 0.1881,-0.1881 0.3762,-0.3762 0.57,-0.57 1.235883,-0.08988 1.803062,-0.127959 2.85,0.57 0.28215,-0.1881 0.5643,-0.3762 0.855,-0.57 0.855,-0.106875 0.855,-0.106875 1.71,0 0.806208,0.725401 0.855997,1.153264 0.938495,2.248828 -0.0057,0.414223 -0.01577,0.828406 -0.03002,1.242422 -0.0057,0.318521 -0.0057,0.318521 -0.01168,0.643477 -0.01007,0.521846 -0.02537,1.043587 -0.04171,1.565273 -0.28215,0 -0.5643,0 -0.855,0 -0.01729,-0.281416 -0.03449,-0.56283 -0.05235,-0.852773 -0.03581,-0.547768 -0.03581,-0.547768 -0.07239,-1.106602 -0.03468,-0.545563 -0.03468,-0.545563 -0.07011,-1.102148 -0.03098,-0.895132 -0.03098,-0.895132 -0.37524,-1.498477 -0.5643,0 -1.1286,0 -1.71,0 -0.09405,1.5048 -0.1881,3.0096 -0.285,4.56 -0.3762,0 -0.7524,0 -1.14,0 -0.09405,-1.5048 -0.1881,-3.0096 -0.285,-4.56 -0.47025,0 -0.9405,0 -1.425,0 -0.568908,0.568908 -0.401803,1.657851 -0.445313,2.440313 -0.01235,0.202611 -0.02461,0.405223 -0.03733,0.613974 -0.0303,0.501835 -0.059,1.003766 -0.0874,1.505713 -0.3762,0 -0.7524,0 -1.14,0 0,-1.881 0,-3.762 0,-5.7 z"
     fill="#537cce"
     id="path1618"
     style="stroke-width:0.285" />
  <path
     d="m 92.411116,12.495102 c 0.718475,0.07978 1.044012,0.166372 1.504876,0.735949 0.101488,0.189546 0.202977,0.379093 0.307543,0.574383 0.112053,0.204816 0.224105,0.409632 0.339549,0.620654 0.112794,0.215103 0.225578,0.430206 0.341782,0.651827 0.117192,0.216204 0.234393,0.432409 0.355138,0.655165 0.28875,0.533858 0.572876,1.070214 0.856109,1.607022 0.0941,-1.59885 0.1881,-3.1977 0.285,-4.845 0.28215,0 0.5643,0 0.855,0 0,2.2572 0,4.5144 0,6.84 -1.425,-0.285 -1.425,-0.285 -2.05289,-1.155586 -0.199377,-0.360245 -0.393699,-0.723331 -0.583357,-1.088789 -0.09993,-0.181855 -0.199861,-0.363709 -0.302813,-0.551074 -0.416888,-0.768032 -0.774183,-1.504285 -1.050937,-2.334551 -0.09405,1.6929 -0.1881,3.3858 -0.285,5.13 -0.28215,0 -0.5643,0 -0.855,0 -0.0085,-1.086558 -0.0133,-2.173108 -0.01777,-3.259687 -0.0028,-0.310255 -0.0047,-0.62051 -0.0076,-0.940166 -9.12e-4,-0.294825 -0.0019,-0.58965 -0.0028,-0.893409 -0.0019,-0.273126 -0.0028,-0.546252 -0.0048,-0.827655 0.03297,-0.634083 0.03297,-0.634083 0.317965,-0.919083 z"
     fill="#111111"
     id="path1620"
     style="stroke-width:0.285" />
  <path
     d="m 138.01111,12.495102 c 0.51322,0.0022 0.51322,0.0022 1.14,0.285 0.44889,0.651277 0.82448,1.265756 1.19344,1.959375 0.10121,0.181855 0.20242,0.363709 0.30671,0.551074 0.42294,0.768831 0.78687,1.500618 1.06485,2.334551 0.14108,-2.53935 0.14108,-2.53935 0.285,-5.13 0.28215,0 0.5643,0 0.855,0 0,2.2572 0,4.5144 0,6.84 -1.425,-0.285 -1.425,-0.285 -2.05289,-1.155586 -0.19938,-0.360245 -0.3937,-0.723331 -0.58336,-1.088789 -0.0999,-0.181855 -0.19985,-0.363709 -0.30281,-0.551074 -0.41689,-0.768032 -0.77419,-1.504285 -1.05094,-2.334551 -0.0941,1.6929 -0.1881,3.3858 -0.285,5.13 -0.28215,0 -0.5643,0 -0.855,0 -0.009,-1.086558 -0.0133,-2.173108 -0.0178,-3.259687 -0.003,-0.310255 -0.005,-0.62051 -0.008,-0.940166 -9.2e-4,-0.294825 -0.002,-0.58965 -0.003,-0.893409 -0.002,-0.273126 -0.003,-0.546252 -0.005,-0.827655 0.033,-0.634083 0.033,-0.634083 0.31796,-0.919083 z"
     fill="#101010"
     id="path1622"
     style="stroke-width:0.285" />
  <path
     d="m 24.296116,12.210102 c 0.57,0.855 0.57,0.855 0.57,1.71 -0.28215,0.09405 -0.5643,0.1881 -0.855,0.285 -0.123443,-0.229246 -0.246886,-0.458494 -0.374063,-0.694687 -0.425286,-0.809675 -0.425286,-0.809675 -1.335937,-1.015313 -1.203764,-0.11722 -2.250864,-0.122923 -3.384375,0.320625 -1.030038,0.908856 -1.421343,1.704398 -1.521853,3.086015 -0.02651,1.744727 -0.02651,1.744727 0.346228,3.43336 0.97545,0.406439 2.023158,0.313219 3.06375,0.302813 0.333583,-0.0026 0.667166,-0.0051 1.010857,-0.0078 0.254229,-0.0033 0.508459,-0.0067 0.770393,-0.01002 0,0.28215 0,0.5643 0,0.855 -1.191082,0.595539 -2.692994,0.410298 -3.99,0.285 -1.076274,-0.413323 -1.639206,-1.033811 -2.28,-1.995 -0.221018,-1.963283 -0.158213,-3.703022 0.855,-5.415 1.811868,-2.264833 4.681818,-2.674089 7.125,-1.14 z"
     fill="#4d74c5"
     id="path1624"
     style="stroke-width:0.285" />
  <path
     d="m 58.781116,11.070102 c 0.3762,0 0.7524,0 1.14,0 0.09405,0.9405 0.1881,1.881 0.285,2.85 0.1881,-0.09405 0.3762,-0.1881 0.57,-0.285 1.536976,-0.130806 1.536976,-0.130806 2.186833,0.360495 0.459753,0.601192 0.478544,0.889251 0.461662,1.637845 -0.0028,0.215837 -0.0057,0.431675 -0.0085,0.654052 -0.0076,0.22392 -0.01434,0.44784 -0.02175,0.678546 -0.0057,0.340839 -0.0057,0.340839 -0.01168,0.688564 -0.01007,0.560249 -0.02536,1.120398 -0.0417,1.680498 -0.28215,0 -0.5643,0 -0.855,0 -0.01729,-0.305295 -0.03449,-0.610591 -0.05235,-0.925137 -0.02403,-0.398187 -0.04816,-0.796371 -0.07239,-1.19455 -0.01121,-0.20151 -0.02242,-0.403019 -0.03391,-0.610635 0.02289,-0.999445 0.02289,-0.999445 -0.411359,-1.829678 -0.7125,-0.0475 -0.7125,-0.0475 -1.425,0 -0.568908,0.568908 -0.401803,1.657851 -0.445313,2.440313 -0.01235,0.202611 -0.02461,0.405223 -0.03733,0.613974 -0.0303,0.501835 -0.059,1.003766 -0.0874,1.505713 -0.3762,0 -0.7524,0 -1.14,0 0,-2.72745 0,-5.4549 0,-8.265 z"
     fill="#527acc"
     id="path1626"
     style="stroke-width:0.285" />
  <path
     d="m 151.5308,12.780102 c 0.22043,0.141075 0.22043,0.141075 0.44531,0.285 0,0.28215 0,0.5643 0,0.855 -0.14696,-0.04702 -0.29391,-0.09405 -0.44531,-0.1425 -1.22966,-0.252237 -2.35375,-0.25448 -3.54469,0.1425 -0.43327,1.299809 -0.52073,2.560412 0,3.829688 0.89046,0.695673 1.73359,0.657105 2.85,0.730312 0,-0.65835 0,-1.3167 0,-1.995 -0.47025,0 -0.9405,0 -1.425,0 0,-0.28215 0,-0.5643 0,-0.855 0.84645,0 1.6929,0 2.565,0 0,1.03455 0,2.0691 0,3.135 -1.31064,0.655318 -2.26374,0.829478 -3.705,0.57 -0.78537,-0.621753 -1.26423,-1.103455 -1.71,-1.995 -0.14859,-1.376296 -0.2092,-2.491376 0.49875,-3.705 1.34689,-1.197239 2.71881,-1.573817 4.47094,-0.855 z"
     fill="#131313"
     id="path1628"
     style="stroke-width:0.285" />
  <path
     d="m 86.426116,12.495102 c 0.971422,0.604441 1.656952,1.173661 1.995,2.28 0.134624,1.391077 0.148969,2.00261 -0.516563,3.241875 -0.627066,0.752477 -1.090448,1.242561 -2.072928,1.433906 -1.260166,0.05161 -1.80709,0.0076 -2.843322,-0.774843 -0.729144,-1.069586 -0.749768,-2.172145 -0.694687,-3.435586 0.223136,-1.174954 0.688265,-1.664857 1.5675,-2.460352 0.883642,-0.441819 1.589996,-0.367627 2.565,-0.285 z m -2.671875,1.425 c -0.597436,1.102953 -0.658531,1.908133 -0.463125,3.135 0.221274,0.876243 0.221274,0.876243 0.855,1.425 0.791055,0.186229 1.497371,0.228792 2.28,0 0.809333,-0.809336 0.977968,-1.436563 0.979687,-2.565 -0.0323,-0.952387 -0.0779,-1.349391 -0.587812,-2.173125 -1.188878,-0.688299 -1.999019,-0.71849 -3.06375,0.178125 z"
     fill="#191919"
     id="path1630"
     style="stroke-width:0.285" />
  <path
     d="m 112.93111,12.495102 c 0.28215,0 0.5643,0 0.855,0 0.0154,0.831321 0.0267,1.662356 0.0356,2.49375 0.008,0.352688 0.008,0.352688 0.0144,0.7125 0.002,0.227778 0.004,0.455554 0.006,0.690234 0.003,0.20895 0.006,0.417898 0.009,0.633179 -0.0761,0.70546 -0.25547,1.141921 -0.63472,1.740337 -1.05372,0.702479 -1.91234,0.730228 -3.135,0.57 -0.69469,-0.35625 -0.69469,-0.35625 -1.14,-0.855 -0.36473,-1.150659 -0.31653,-2.296567 -0.30281,-3.49125 9.5e-4,-0.212347 0.003,-0.424695 0.004,-0.643477 0.004,-0.521767 0.009,-1.043523 0.014,-1.565273 0.28215,0 0.5643,0 0.855,0 0.0173,0.343135 0.0346,0.686271 0.0523,1.039804 0.024,0.449027 0.0482,0.898051 0.0724,1.347071 0.0112,0.226308 0.0224,0.452615 0.0339,0.685781 0.0377,1.209758 0.0377,1.209758 0.41136,2.342344 0.97372,0.04753 0.97372,0.04753 1.995,0 0.67077,-0.670771 0.64944,-0.83496 0.68801,-1.747852 0.011,-0.229614 0.022,-0.459228 0.0334,-0.695801 0.0132,-0.359851 0.0132,-0.359851 0.0267,-0.726972 0.0165,-0.363157 0.0165,-0.363157 0.0334,-0.733653 0.0269,-0.59847 0.0504,-1.197088 0.0734,-1.795722 z"
     fill="#0d0d0d"
     id="path1632"
     style="stroke-width:0.285" />
  <path
     d="m 104.09611,12.495102 c 0.1881,0.09405 0.3762,0.1881 0.57,0.285 0,0.28215 0,0.5643 0,0.855 -0.7524,0 -1.5048,0 -2.28,0 0,0.3762 0,0.7524 0,1.14 0.62362,0.492593 1.28389,0.847975 1.97608,1.236855 0.58892,0.473145 0.58892,0.473145 0.83718,1.190098 0.0368,0.708047 0.0368,0.708047 -0.35513,1.50961 -0.97011,0.808422 -1.56936,0.742561 -2.79211,0.673534 -0.17194,-0.01653 -0.34387,-0.03306 -0.52102,-0.05009 -0.1881,-0.3762 -0.3762,-0.7524 -0.57,-1.14 0.9405,0 1.881,0 2.85,0 -0.0107,-0.676116 -0.0107,-0.676116 -0.285,-1.425 -0.82305,-0.635791 -0.82305,-0.635791 -1.71,-1.14 -0.1881,-0.1881 -0.3762,-0.3762 -0.57,-0.57 0.0534,-0.9975 0.0534,-0.9975 0.285,-1.995 0.98514,-0.656759 1.41034,-0.643701 2.565,-0.57 z"
     fill="#131313"
     id="path1634"
     style="stroke-width:0.285" />
  <path
     d="m 124.04611,12.495102 c 1.6929,0 3.3858,0 5.13,0 0,0.28215 0,0.5643 0,0.855 -0.65835,0 -1.3167,0 -1.995,0 0,1.97505 0,3.9501 0,5.985 -0.3762,0 -0.7524,0 -1.14,0 0,-1.97505 0,-3.9501 0,-5.985 -0.65835,0 -1.3167,0 -1.995,0 0,-0.28215 0,-0.5643 0,-0.855 z"
     fill="#343434"
     id="path1636"
     style="stroke-width:0.285" />
  <path
     d="m 77.591116,12.601977 c 0.199861,0.02572 0.399712,0.05143 0.605625,0.07793 0.534375,0.100196 0.534375,0.100196 1.104375,0.385196 0,0.28215 0,0.5643 0,0.855 -0.195814,-0.0338 -0.391628,-0.0676 -0.59338,-0.102421 -0.256804,-0.03674 -0.513598,-0.07347 -0.778183,-0.111329 -0.2546,-0.03968 -0.50919,-0.07935 -0.771504,-0.120234 -0.738454,-0.02374 -0.738454,-0.02374 -1.222384,0.533262 -0.375763,0.725664 -0.438226,1.145687 -0.410799,1.956035 0.0048,0.217857 0.0085,0.435715 0.0134,0.660175 0.04018,0.658017 0.04018,0.658017 0.342893,1.459512 0.409659,0.0077 0.819356,0.01324 1.229062,0.01781 0.228143,0.0033 0.456285,0.0066 0.691344,0.01002 0.692645,-3.07e-4 0.692645,-3.07e-4 1.499594,-0.312832 -0.08902,0.552187 -0.08902,0.552187 -0.285,1.14 -1.067344,0.355782 -2.030321,0.499917 -3.135,0.285 -1.011399,-0.77962 -1.335463,-1.214619 -1.560822,-2.461465 -0.06907,-1.332479 -0.04997,-2.353734 0.812697,-3.41666 0.934116,-0.845156 1.249554,-1.019402 2.458125,-0.855 z"
     fill="#181818"
     id="path1638"
     style="stroke-width:0.285" />
  <path
     d="m 6.6261164,1.0951023 c 0,0.28215 0,0.5643 0,0.855 -0.270399,0.035264 -0.540788,0.070538 -0.8193752,0.106875 -0.915325,0.097434 -0.915325,0.097434 -1.460625,0.748125 -0.605625,0.178125 -0.605625,0.178125 -1.14,0.285 -0.029355,0.1763437 -0.058805,0.3526875 -0.089015,0.534375 -0.195985,0.605625 -0.195985,0.605625 -1.050985,1.175625 -0.3733215,0.9509376 -0.3211665,1.9276991 -0.321879,2.9382968 -8.93e-4,0.3643592 -0.0019,0.7287184 -0.00285,1.1041185 5.035e-4,0.3970403 9.5e-4,0.7940803 0.0019,1.1911194 -1.995e-4,0.408926 -4.75e-4,0.817853 -8.265e-4,1.226779 -4.275e-4,0.856948 1.9e-4,1.713886 0.0019,2.570833 0.0019,1.094335 6.935e-4,2.188651 -9.5e-4,3.282987 -9.5e-4,0.844769 -7.03e-4,1.689534 3.8e-5,2.534304 1.805e-4,0.40324 -4.75e-5,0.806481 -7.125e-4,1.209721 -7.315e-4,0.56597 5.795e-4,1.131942 0.0019,1.697912 2.28e-4,0.321225 4.56e-4,0.642452 6.84e-4,0.973412 0.03838,0.992972 0.164635,1.949795 0.321195,2.930517 -0.990622,-0.990623 -0.894425,-1.953608 -0.905445,-3.291068 -0.0019,-0.188266 -0.0038,-0.376533 -0.0057,-0.570504 -0.0057,-0.62283 -0.00855,-1.245639 -0.01178,-1.868487 -9.5e-4,-0.213325 -0.0019,-0.426651 -0.0038,-0.646441 -0.0057,-1.129849 -0.00997,-2.259689 -0.01273,-3.389551 -0.00285,-1.163069 -0.01292,-2.325982 -0.024225,-3.488996 -0.0076,-0.897591 -0.00988,-1.795147 -0.01083,-2.692766 -9.5e-4,-0.42847 -0.00475,-0.8569381 -0.00997,-1.2853781 C 1.0554302,6.932953 1.0392802,5.0532763 2.3512777,3.0901023 2.9313002,2.5034032 2.9313002,2.5034032 3.5090902,2.1104148 3.7004962,1.9755851 3.8919022,1.8407554 4.0891127,1.7018407 4.9909952,1.1665404 5.5643772,1.0951023 6.6261164,1.0951023 Z"
     fill="#486eb9"
     id="path1640"
     style="stroke-width:0.285" />
  <path
     d="m 65.621116,12.210102 c 0.28215,0 0.5643,0 0.855,0 0,0.47025 0,0.9405 0,1.425 0.5643,0 1.1286,0 1.71,0 0,0.28215 0,0.5643 0,0.855 -0.47025,0 -0.9405,0 -1.425,0 0,1.3167 0,2.6334 0,3.99 0.47025,0 0.9405,0 1.425,0 0,0.28215 0,0.5643 0,0.855 -0.961875,0.05344 -0.961875,0.05344 -1.995,0 -0.709992,-1.064983 -0.628862,-1.637187 -0.605625,-2.903437 0.0048,-0.362607 0.01026,-0.725214 0.01558,-1.098809 0.0067,-0.278109 0.0132,-0.556218 0.02004,-0.842754 -0.28215,0 -0.5643,0 -0.855,0 0,-0.28215 0,-0.5643 0,-0.855 0.28215,0 0.5643,0 0.855,0 0,-0.47025 0,-0.9405 0,-1.425 z"
     fill="#4b6ec7"
     id="path1642"
     style="stroke-width:0.285" />
  <path
     d="m 55.824241,13.61729 c 0.338722,0.0026 0.677454,0.0051 1.026446,0.0078 0.260842,0.0033 0.521683,0.0067 0.790429,0.01002 0,0.28215 0,0.5643 0,0.855 -0.28215,0 -0.5643,0 -0.855,0 0.09405,0.5643 0.1881,1.1286 0.285,1.71 -0.47025,0.3762 -0.9405,0.7524 -1.425,1.14 -1.57985,-0.82427 -1.57985,-0.82427 -1.950474,-1.72336 -0.135042,-0.560062 -0.234811,-1.128363 -0.329526,-1.69664 0.821987,-0.410993 1.543902,-0.311776 2.458125,-0.302812 z"
     fill="#4e74c8"
     id="path1644"
     style="stroke-width:0.285" />
  <path
     d="m 41.966116,14.40104 c 0.28215,0.02939 0.5643,0.05879 0.855,0.08906 0.569506,0.854256 0.648517,1.035541 0.64125,1.995 0.0019,0.193978 0.0029,0.387956 0.0048,0.587813 -0.076,0.552187 -0.076,0.552187 -0.646,1.407187 -0.855,0.08906 -0.855,0.08906 -1.71,0 -0.57,-0.57 -0.57,-0.57 -0.645706,-1.229062 0.0019,-0.252759 0.0029,-0.505519 0.0048,-0.765938 -0.0019,-0.25276 -0.0029,-0.505519 -0.0048,-0.765937 0.121648,-1.059037 0.471656,-1.210933 1.500706,-1.318125 z"
     fill="#f0f7fd"
     id="path1646"
     style="stroke-width:0.285" />
  <path
     d="m 36.551116,13.635102 c 0.3762,0 0.7524,0 1.14,0 0.01653,1.122169 0.02669,2.244309 0.03562,3.366563 0.0048,0.319071 0.0096,0.638143 0.01444,0.966884 0.0019,0.305847 0.0038,0.611693 0.0057,0.926807 0.0029,0.282081 0.0057,0.564162 0.0095,0.854792 -0.06526,0.724954 -0.06526,0.724954 -0.635265,1.579954 -0.890625,0.05344 -0.890625,0.05344 -1.71,0 0,-0.1881 0,-0.3762 0,-0.57 0.28215,-0.09405 0.5643,-0.1881 0.855,-0.285 0.09405,-2.2572 0.1881,-4.5144 0.285,-6.84 z"
     fill="#5980d5"
     id="path1648"
     style="stroke-width:0.285" />
  <path
     d="m 162.80611,3.3751023 c 0.96188,0.07125 0.96188,0.07125 1.995,0.285 0.72078,0.9605497 0.64572,1.9658008 0.6528,3.130477 0.003,0.2970318 0.003,0.2970318 0.006,0.6000628 0.006,0.6531677 0.007,1.3062519 0.008,1.9594398 0.002,0.455021 0.004,0.9100411 0.006,1.3650621 0.004,0.953265 0.005,1.906501 0.004,2.859772 -5e-5,1.22034 0.008,2.440492 0.0176,3.660788 0.007,0.939612 0.008,1.87918 0.008,2.818813 6.6e-4,0.449855 0.003,0.89971 0.008,1.349543 0.006,0.629697 0.004,1.258984 5e-4,1.888687 8.2e-4,0.357933 0.002,0.715866 0.003,1.084645 -0.16441,1.099828 -0.52094,1.574633 -1.28092,2.36771 -0.1881,-0.09405 -0.3762,-0.1881 -0.57,-0.285 0.13519,-0.12344 0.27039,-0.246881 0.40969,-0.374062 0.87146,-0.941183 0.76911,-1.943662 0.77623,-3.16325 9.5e-4,-0.18408 0.003,-0.368161 0.005,-0.557819 0.004,-0.608436 0.006,-1.216851 0.008,-1.825298 0.002,-0.423479 0.003,-0.846959 0.005,-1.270437 0.003,-0.887875 0.005,-1.775742 0.006,-2.663622 0.002,-1.136288 0.009,-2.27248 0.0165,-3.408737 0.006,-0.87482 0.007,-1.749617 0.008,-2.624451 8.7e-4,-0.418832 0.003,-0.8376611 0.007,-1.2564761 0.005,-0.5866685 0.005,-1.1730997 0.003,-1.7597808 9.5e-4,-0.3334775 0.002,-0.6669551 0.003,-1.0105378 -0.14983,-1.2739842 -0.60276,-2.0197408 -1.58317,-2.8320915 -0.17175,-0.1116849 -0.34221,-0.2233688 -0.51784,-0.3384375 z"
     fill="#406cc6"
     id="path1650"
     style="stroke-width:0.285" />
  <path
     d="m 45.956116,13.635102 c 0.28215,0 0.5643,0 0.855,0 0.09405,0.1881 0.1881,0.3762 0.285,0.57 0.1881,-0.1881 0.3762,-0.3762 0.57,-0.57 0.748125,-0.03562 0.748125,-0.03562 1.425,0 0,0.28215 0,0.5643 0,0.855 -0.5643,0.09405 -1.1286,0.1881 -1.71,0.285 -0.09405,1.5048 -0.1881,3.0096 -0.285,4.56 -0.3762,0 -0.7524,0 -1.14,0 0,-1.881 0,-3.762 0,-5.7 z"
     fill="#4370d0"
     id="path1652"
     style="stroke-width:0.285" />
  <path
     d="m 39.116116,10.785102 c 0.3762,0.09405 0.7524,0.1881 1.14,0.285 -0.28215,0 -0.5643,0 -0.855,0 0.0029,0.199122 0.0067,0.398243 0.01,0.603398 0.0038,0.389058 0.0038,0.389058 0.0076,0.785977 0.0029,0.257903 0.0067,0.515805 0.01007,0.781523 -0.02765,0.679102 -0.02765,0.679102 -0.312645,1.249102 -0.1881,0 -0.3762,0 -0.57,0 -0.258875,0.776631 -0.337326,1.317367 -0.375174,2.123028 -0.01197,0.241553 -0.02385,0.483108 -0.03619,0.731981 -0.01121,0.251107 -0.02242,0.502213 -0.03392,0.760929 -0.01235,0.254412 -0.02461,0.508824 -0.03733,0.770946 -0.03021,0.627663 -0.05928,1.255356 -0.0874,1.883116 -0.28215,0.141075 -0.28215,0.141075 -0.57,0.285 0.0085,-0.209867 0.01729,-0.419735 0.02613,-0.635962 0.03905,-0.951753 0.07771,-1.90352 0.116337,-2.855288 0.01358,-0.330277 0.02717,-0.660554 0.04123,-1.00084 0.01282,-0.317786 0.02575,-0.635572 0.03895,-0.962989 0.01197,-0.292527 0.02385,-0.585056 0.03619,-0.886449 0.02138,-0.64086 0.02613,-1.282255 0.02613,-1.923472 -0.3762,-0.1881 -0.7524,-0.3762 -1.14,-0.57 0.09405,-0.28215 0.1881,-0.5643 0.285,-0.855 0.170468,0.04702 0.340936,0.09405 0.516562,0.1425 0.655766,0.174253 0.655766,0.174253 1.478438,0.1425 0.09405,-0.28215 0.1881,-0.5643 0.285,-0.855 z"
     fill="#f0fdfe"
     id="path1654"
     style="stroke-width:0.285" />
  <path
     d="m 39.686116,15.060102 c 0.28215,0.141075 0.28215,0.141075 0.57,0.285 0.07334,0.577249 0.144903,1.155248 0.187036,1.735605 0.05662,0.611433 0.05662,0.611433 0.667964,1.114395 0.878788,0.04754 0.878788,0.04754 1.71,0 0.1881,-0.9405 0.3762,-1.881 0.57,-2.85 0.28215,-0.09405 0.5643,-0.1881 0.855,-0.285 0.17479,2.500426 0.17479,2.500426 -0.445313,3.740625 -0.940072,0.723133 -1.532407,0.684393 -2.689687,0.534375 -0.1881,-0.1881 -0.3762,-0.3762 -0.57,-0.57 -0.28215,0 -0.5643,0 -0.855,0 0,-1.22265 0,-2.4453 0,-3.705 z"
     fill="#3a6bcb"
     id="path1656"
     style="stroke-width:0.285" />
  <path
     d="m 118.06111,12.780102 c 0.28215,0 0.5643,0 0.855,0 0,1.881 0,3.762 0,5.7 0.84645,0 1.6929,0 2.565,0 0,0.28215 0,0.5643 0,0.855 -1.1286,0 -2.2572,0 -3.42,0 0,-2.16315 0,-4.3263 0,-6.555 z"
     fill="#0d0d0d"
     id="path1658"
     style="stroke-width:0.285" />
  <path
     d="m 21.731116,13.920102 c 0.28215,-0.09405 0.5643,-0.1881 0.855,-0.285 -0.09405,1.22265 -0.1881,2.4453 -0.285,3.705 -0.3762,0 -0.7524,0 -1.14,0 0.09405,-0.7524 0.1881,-1.5048 0.285,-2.28 -0.47025,-0.09405 -0.9405,-0.1881 -1.425,-0.285 -0.652688,0.979033 -0.620854,1.420819 -0.57,2.565 -0.28215,0 -0.5643,0 -0.855,0 -0.174724,-2.271458 -0.174724,-2.271458 0.445312,-3.313125 0.97623,-0.550696 1.614364,-0.32194 2.689688,-0.106875 z"
     fill="#4772cd"
     id="path1660"
     style="stroke-width:0.285" />
  <path
     d="m 96.401113,12.495102 c 0.28215,0 0.5643,0 0.855,0 0,2.2572 0,4.5144 0,6.84 -0.47025,-0.09405 -0.9405,-0.1881 -1.425,-0.285 -0.09405,-0.3762 -0.1881,-0.7524 -0.285,-1.14 0.1881,-0.09405 0.3762,-0.1881 0.57,-0.285 0.14108,-2.53935 0.14108,-2.53935 0.285,-5.13 z"
     fill="#191919"
     id="path1662"
     style="stroke-width:0.285" />
  <path
     d="m 142.00111,12.495102 c 0.28215,0 0.5643,0 0.855,0 0,2.2572 0,4.5144 0,6.84 -0.47025,-0.09405 -0.9405,-0.1881 -1.425,-0.285 -0.0941,-0.3762 -0.1881,-0.7524 -0.285,-1.14 0.1881,-0.09405 0.3762,-0.1881 0.57,-0.285 0.14108,-2.53935 0.14108,-2.53935 0.285,-5.13 z"
     fill="#191919"
     id="path1664"
     style="stroke-width:0.285" />
  <path
     d="m 163.37611,3.9451023 c 0.65743,0.2629704 1.05898,0.449387 1.45881,1.0446228 0.33114,0.8771588 0.31943,1.609984 0.3159,2.5476578 8e-5,0.1864109 1.7e-4,0.3728218 2.5e-4,0.5648814 -4e-4,0.6137712 -0.005,1.2274426 -0.01,1.8411966 -9.5e-4,0.4264851 -0.002,0.8529711 -0.003,1.2794561 -0.002,1.120746 -0.008,2.24145 -0.0141,3.362179 -0.006,1.144326 -0.009,2.288659 -0.0113,3.432994 -0.006,2.244024 -0.0159,4.488012 -0.0278,6.732012 -0.094,0 -0.1881,0 -0.285,0 -0.002,-0.348733 -0.002,-0.348733 -0.003,-0.704511 -0.0108,-2.193148 -0.027,-4.386157 -0.0493,-6.579215 -0.0112,-1.12743 -0.0204,-2.254796 -0.0248,-3.382274 -0.005,-1.088503 -0.0142,-2.176831 -0.0277,-3.265256 -0.004,-0.414833 -0.007,-0.8296901 -0.007,-1.2445441 -6.7e-4,-0.582097 -0.009,-1.1637123 -0.0178,-1.7457269 -0.003,-0.3309933 -0.005,-0.6619866 -0.008,-1.00301 -0.17682,-1.0596994 -0.58387,-1.5189142 -1.28771,-2.3104627 0,-0.1881 0,-0.3762 0,-0.57 z"
     fill="#f0feff"
     id="path1666"
     style="stroke-width:0.285" />
  <path
     d="m 50.231116,13.635102 c 0.3762,0 0.7524,0 1.14,0 0,1.881 0,3.762 0,5.7 -0.3762,0 -0.7524,0 -1.14,0 0,-1.881 0,-3.762 0,-5.7 z"
     fill="#557dcd"
     id="path1668"
     style="stroke-width:0.285" />
  <path
     d="m 60.776116,13.635102 c 1.570435,-0.104696 1.570435,-0.104696 2.189056,0.359381 0.456561,0.601905 0.476302,0.891558 0.459439,1.638959 -0.0028,0.215837 -0.0057,0.431675 -0.0085,0.654052 -0.0076,0.22392 -0.01434,0.44784 -0.02175,0.678546 -0.0038,0.227226 -0.0076,0.454452 -0.01168,0.688564 -0.01007,0.560249 -0.02536,1.120398 -0.0417,1.680498 -0.28215,0 -0.5643,0 -0.855,0 -0.09405,-1.41075 -0.1881,-2.8215 -0.285,-4.275 -0.705375,-0.28215 -0.705375,-0.28215 -1.425,-0.57 0,-0.28215 0,-0.5643 0,-0.855 z"
     fill="#426ccf"
     id="path1670"
     style="stroke-width:0.285" />
  <path
     d="m 32.276116,13.635102 c 0.801562,-0.07125 0.801562,-0.07125 1.71,0 0.810597,0.720527 0.856111,1.154788 0.938495,2.248828 -0.0057,0.414223 -0.01577,0.828406 -0.03002,1.242422 -0.0038,0.212347 -0.0076,0.424695 -0.01168,0.643477 -0.01007,0.521846 -0.02537,1.043587 -0.04171,1.565273 -0.28215,0 -0.5643,0 -0.855,0 -0.01397,-0.278109 -0.02793,-0.556217 -0.04228,-0.842754 -0.02128,-0.362607 -0.04265,-0.725213 -0.0646,-1.098808 -0.02974,-0.540605 -0.02974,-0.540605 -0.06014,-1.092129 -0.04988,-0.992662 -0.04988,-0.992662 -0.688009,-1.811309 -0.28215,-0.09405 -0.5643,-0.1881 -0.855,-0.285 0,-0.1881 0,-0.3762 0,-0.57 z"
     fill="#426cca"
     id="path1672"
     style="stroke-width:0.285" />
  <path
     d="m 20.021116,14.490102 c 0.748125,0.106875 0.748125,0.106875 1.425,0.285 0.285,0.855 0.285,0.855 0.106875,1.585313 -0.486429,0.86231 -0.885087,0.99496 -1.816875,1.264687 -0.1881,-0.1881 -0.3762,-0.3762 -0.57,-0.57 0.131537,-1.841539 0.131537,-1.841539 0.855,-2.565 z"
     fill="#e4f0fc"
     id="path1674"
     style="stroke-width:0.285" />
  <path
     d="m 132.59611,12.495102 c 0.28215,0 0.5643,0 0.855,0 0,2.2572 0,4.5144 0,6.84 -0.28215,0 -0.5643,0 -0.855,0 0,-2.2572 0,-4.5144 0,-6.84 z"
     fill="#0e0e0e"
     id="path1676"
     style="stroke-width:0.285" />
  <path
     d="m 83.861116,12.780102 c 0.1881,0.09405 0.3762,0.1881 0.57,0.285 -0.211613,0.352688 -0.211613,0.352688 -0.4275,0.7125 -0.651662,1.520543 -0.593171,2.697647 -0.1425,4.275 0.09405,0.235125 0.1881,0.47025 0.285,0.7125 -0.28215,0 -0.5643,0 -0.855,0 -0.834908,-0.83885 -0.984457,-1.507958 -0.9975,-2.671875 0.02404,-1.121468 0.127642,-1.788255 0.855,-2.654062 0.235125,-0.217491 0.47025,-0.434982 0.7125,-0.659063 z"
     fill="#0d0d0d"
     id="path1678"
     style="stroke-width:0.285" />
  <path
     d="m 112.93111,12.495102 c 0.28215,0 0.5643,0 0.855,0 0.0154,0.831321 0.0267,1.662356 0.0356,2.49375 0.008,0.352688 0.008,0.352688 0.0144,0.7125 0.002,0.227778 0.004,0.455554 0.006,0.690234 0.003,0.20895 0.006,0.417898 0.009,0.633179 -0.0752,0.697964 -0.26112,1.148115 -0.63472,1.740337 -0.60562,0.21375 -0.60562,0.21375 -1.14,0.285 0.0904,-0.180385 0.18076,-0.36077 0.27387,-0.546621 0.39732,-1.178516 0.42743,-2.296483 0.47426,-3.532441 0.011,-0.238248 0.022,-0.476496 0.0334,-0.721963 0.0267,-0.584561 0.0504,-1.169259 0.0734,-1.753975 z"
     fill="#232323"
     id="path1680"
     style="stroke-width:0.285" />
  <path
     d="m 149.41111,15.630102 c 0.84645,0 1.6929,0 2.565,0 0,1.03455 0,2.0691 0,3.135 -0.47025,0.09405 -0.9405,0.1881 -1.425,0.285 0.094,-0.84645 0.1881,-1.6929 0.285,-2.565 -0.47025,0 -0.9405,0 -1.425,0 0,-0.28215 0,-0.5643 0,-0.855 z"
     fill="#262626"
     id="path1682"
     style="stroke-width:0.285" />
  <path
     d="m 17.456116,18.765102 c 0.09405,0.1881 0.1881,0.3762 0.285,0.57 0.996911,0.377403 2.010523,0.313345 3.06375,0.302813 0.333583,-0.0026 0.667166,-0.0051 1.010857,-0.0078 0.254229,-0.0033 0.508459,-0.0067 0.770393,-0.01002 0,0.28215 0,0.5643 0,0.855 -1.190455,0.595225 -2.693706,0.411757 -3.99,0.285 -0.912,-0.359685 -1.546182,-0.812358 -1.995,-1.71 0.28215,-0.09405 0.5643,-0.1881 0.855,-0.285 z"
     fill="#5177cb"
     id="path1684"
     style="stroke-width:0.285" />
  <path
     d="m 65.621116,14.490102 c 0.423225,0.28215 0.423225,0.28215 0.855,0.57 0.145844,0.741446 0.145844,0.741446 0.195937,1.603125 0.01872,0.285824 0.03743,0.571647 0.05681,0.866133 0.01064,0.219695 0.02128,0.439389 0.0323,0.665742 0.47025,0.09405 0.9405,0.1881 1.425,0.285 0,0.28215 0,0.5643 0,0.855 -0.961875,0.05344 -0.961875,0.05344 -1.995,0 -0.709992,-1.064983 -0.628862,-1.637187 -0.605625,-2.903437 0.0048,-0.362607 0.01026,-0.725214 0.01558,-1.098809 0.0067,-0.278109 0.0132,-0.556218 0.02005,-0.842754 z"
     fill="#4470c9"
     id="path1686"
     style="stroke-width:0.285" />
  <path
     d="m 6.6261164,1.0951023 c 0,0.28215 0,0.5643 0,0.855 -0.270399,0.035264 -0.540788,0.070538 -0.8193752,0.106875 -0.915325,0.097434 -0.915325,0.097434 -1.460625,0.748125 -0.605625,0.178125 -0.605625,0.178125 -1.14,0.285 -0.029355,0.1763437 -0.058805,0.3526875 -0.089015,0.534375 -0.195985,0.605625 -0.195985,0.605625 -1.050985,1.175625 -0.3456575,0.8704726 -0.3456575,0.8704726 -0.57,1.71 -0.3060045,-0.9119335 -0.29412,-1.3789535 0.1246875,-2.244375 1.0322605,-1.9309824 2.810309,-3.170625 5.0053127,-3.170625 z"
     fill="#4a77d0"
     id="path1688"
     style="stroke-width:0.285" />
  <path
     d="m 54.462701,19.02227 c 0.584468,0.0093 1.168946,0.01855 1.753415,0.02783 0.178125,0.534375 0.178125,0.534375 0.285,1.14 -0.57,0.57 -0.57,0.57 -1.603125,0.605625 -0.317424,-0.01175 -0.634838,-0.02351 -0.961875,-0.03562 -0.108927,-0.472002 -0.203481,-0.947503 -0.285,-1.425 0.285,-0.285 0.285,-0.285 0.811585,-0.312832 z"
     fill="#dff5fe"
     id="path1690"
     style="stroke-width:0.285" />
  <path
     d="m 54.506116,14.205102 c 0.748125,0.106875 0.748125,0.106875 1.425,0.285 0.01216,0.569871 0.01159,1.140119 0,1.71 -0.285,0.285 -0.285,0.285 -0.9975,0.320625 -0.7125,-0.03562 -0.7125,-0.03562 -0.9975,-0.320625 -0.05339,-0.694687 -0.05339,-0.694687 0,-1.425 0.1881,-0.1881 0.3762,-0.3762 0.57,-0.57 z"
     fill="#e3f3fe"
     id="path1692"
     style="stroke-width:0.285" />
  <path
     d="m 16.601116,14.490102 c 0.1881,0 0.3762,0 0.57,0 0.09405,1.59885 0.1881,3.1977 0.285,4.845 -0.3762,-0.1881 -0.7524,-0.3762 -1.14,-0.57 -0.0076,-0.552166 -0.0132,-1.104362 -0.01777,-1.656562 -0.0028,-0.3075 -0.0066,-0.614999 -0.01007,-0.931817 0.02783,-0.831621 0.02783,-0.831621 0.312835,-1.686621 z"
     fill="#406dc9"
     id="path1694"
     style="stroke-width:0.285" />
  <path
     d="m 20.395178,12.299165 c 0.158707,0.06466 0.317414,0.129318 0.480938,0.195937 -0.5643,0.28215 -1.1286,0.5643 -1.71,0.855 0.1881,0.1881 0.3762,0.3762 0.57,0.57 -0.129314,0.117563 -0.258638,0.235125 -0.391875,0.35625 -0.480083,0.517013 -0.746035,0.998314 -1.033125,1.63875 -0.57,-0.855 -0.57,-0.855 -0.855,-1.425 0.580858,-1.258536 1.430082,-2.394854 2.939062,-2.190937 z"
     fill="#ddedfd"
     id="path1696"
     style="stroke-width:0.285" />
  <path
     d="m 49.091116,13.635102 c 0,0.28215 0,0.5643 0,0.855 -0.5643,0.09405 -1.1286,0.1881 -1.71,0.285 -0.09405,1.5048 -0.1881,3.0096 -0.285,4.56 -0.09405,0 -0.1881,0 -0.285,0 -0.02309,-0.789854 -0.03999,-1.579036 -0.05339,-2.369062 -0.01073,-0.335881 -0.01073,-0.335881 -0.02175,-0.678546 -0.0029,-0.215837 -0.0057,-0.431674 -0.0085,-0.654052 -0.0048,-0.198501 -0.0085,-0.397003 -0.01358,-0.60152 0.24376,-1.359494 1.153575,-1.496039 2.37728,-1.39682 z"
     fill="#5a7fd3"
     id="path1698"
     style="stroke-width:0.285" />
  <path
     d="m 39.116116,10.785102 c 0.3762,0.09405 0.7524,0.1881 1.14,0.285 -0.28215,0 -0.5643,0 -0.855,0 -0.09405,0.5643 -0.1881,1.1286 -0.285,1.71 -0.855,0.285 -0.855,0.285 -1.763438,-0.124687 -0.264518,-0.146954 -0.529026,-0.293907 -0.801562,-0.445313 0.09405,-0.28215 0.1881,-0.5643 0.285,-0.855 0.170468,0.04702 0.340936,0.09405 0.516562,0.1425 0.655766,0.174253 0.655766,0.174253 1.478438,0.1425 0.09405,-0.28215 0.1881,-0.5643 0.285,-0.855 z"
     fill="#b1c6e5"
     id="path1700"
     style="stroke-width:0.285" />
  <path
     d="m 51.371116,13.635102 c 0.211612,0.05291 0.423225,0.105806 0.64125,0.160313 0.769471,0.122416 1.195945,0.08229 1.92375,-0.160313 -0.28215,0.141075 -0.28215,0.141075 -0.57,0.285 0.0067,0.199122 0.0132,0.398243 0.02005,0.603398 0.0047,0.259373 0.01026,0.518745 0.01558,0.785977 0.0066,0.257903 0.0132,0.515805 0.02004,0.781523 -0.05567,0.679102 -0.05567,0.679102 -0.62567,1.249102 -0.09405,-0.84645 -0.1881,-1.6929 -0.285,-2.565 -0.5643,0.28215 -0.5643,0.28215 -1.14,0.57 0,-0.5643 0,-1.1286 0,-1.71 z"
     fill="#dbeafb"
     id="path1702"
     style="stroke-width:0.285" />
  <path
     d="m 49.091116,13.635102 c 0.3762,0 0.7524,0 1.14,0 0,1.881 0,3.762 0,5.7 -0.09405,0 -0.1881,0 -0.285,0 0,-1.5048 0,-3.0096 0,-4.56 -0.28215,0.09405 -0.5643,0.1881 -0.855,0.285 -0.623438,-0.267187 -0.623438,-0.267187 -1.14,-0.57 0.3762,0 0.7524,0 1.14,0 0,-0.28215 0,-0.5643 0,-0.855 z"
     fill="#e8fafe"
     id="path1704"
     style="stroke-width:0.285" />
  <path
     d="m 36.836116,13.635102 c 0.28215,0 0.5643,0 0.855,0 0,2.2572 0,4.5144 0,6.84 -0.09405,0 -0.1881,0 -0.285,0 -0.09405,-1.6929 -0.1881,-3.3858 -0.285,-5.13 -0.09405,0 -0.1881,0 -0.285,0 0,-0.5643 0,-1.1286 0,-1.71 z"
     fill="#446cbb"
     id="path1706"
     style="stroke-width:0.285" />
  <path
     d="m 148.84111,12.495102 c 2.11714,-0.08142 2.11714,-0.08142 3.135,0.57 0,0.28215 0,0.5643 0,0.855 -0.14107,-0.04702 -0.28215,-0.09405 -0.4275,-0.1425 -1.00731,-0.201463 -1.96562,-0.159614 -2.9925,-0.1425 0.094,-0.3762 0.1881,-0.7524 0.285,-1.14 z"
     fill="#252525"
     id="path1708"
     style="stroke-width:0.285" />
  <path
     d="m 64.766116,13.635102 c 0.676875,-0.05344 0.676875,-0.05344 1.425,0 0.69007,1.035107 0.629916,1.534296 0.605625,2.760938 -0.0048,0.336155 -0.01026,0.67231 -0.01558,1.018652 -0.0099,0.386303 -0.0099,0.386303 -0.02005,0.78041 -0.09405,0 -0.1881,0 -0.285,0 -0.01729,-0.195815 -0.03449,-0.39163 -0.05235,-0.593379 -0.02384,-0.256801 -0.04778,-0.513601 -0.07239,-0.778183 -0.02318,-0.254597 -0.04627,-0.509193 -0.07011,-0.771504 -0.07163,-0.743253 -0.07163,-0.743253 -0.375174,-1.561934 -0.3762,0 -0.7524,0 -1.14,0 0,-0.28215 0,-0.5643 0,-0.855 z"
     fill="#5e88dc"
     id="path1710"
     style="stroke-width:0.285" />
  <path
     d="m 56.501116,14.775102 c 0.1881,0.09405 0.3762,0.1881 0.57,0.285 -0.09989,0.923995 -0.160227,1.315354 -0.872813,1.941563 -0.182219,0.111683 -0.364448,0.223368 -0.552187,0.338437 -0.28215,-0.28215 -0.5643,-0.5643 -0.855,-0.855 0.28215,-0.09405 0.5643,-0.1881 0.855,-0.285 0.327769,-0.560518 0.327769,-0.560518 0.57,-1.14 0.09405,-0.09405 0.1881,-0.1881 0.285,-0.285 z"
     fill="#557ed2"
     id="path1712"
     style="stroke-width:0.285" />
  <path
     d="m 66.761116,14.490102 c 0.47025,0 0.9405,0 1.425,0 -0.137038,0.113521 -0.274066,0.227042 -0.415255,0.344004 -0.546316,0.634829 -0.575804,1.020675 -0.635683,1.846934 -0.01872,0.230349 -0.03743,0.460697 -0.05681,0.698027 -0.01064,0.175241 -0.02128,0.350483 -0.0323,0.531035 0.28215,-0.09405 0.5643,-0.1881 0.855,-0.285 0.09405,0.28215 0.1881,0.5643 0.285,0.855 -0.47025,0 -0.9405,0 -1.425,0 0,-1.3167 0,-2.6334 0,-3.99 z"
     fill="#ecfcff"
     id="path1714"
     style="stroke-width:0.285" />
  <path
     d="m 100.96111,18.195102 c 0.9405,0.09405 1.881,0.1881 2.85,0.285 -0.094,0.28215 -0.1881,0.5643 -0.285,0.855 -0.65835,0 -1.3167,0 -1.995,0 -0.1881,-0.3762 -0.3762,-0.7524 -0.57,-1.14 z"
     fill="#242424"
     id="path1716"
     style="stroke-width:0.285" />
  <path
     d="m 22.586116,11.925102 c 0.819375,0.08906 0.819375,0.08906 1.71,0.285 0.57,0.855 0.57,0.855 0.57,1.71 -0.28215,0.09405 -0.5643,0.1881 -0.855,0.285 -0.129314,-0.217491 -0.258638,-0.434981 -0.391875,-0.659062 -0.331522,-0.548291 -0.677711,-1.087821 -1.033125,-1.620938 z"
     fill="#466ec6"
     id="path1718"
     style="stroke-width:0.285" />
  <path
     d="m 56.216116,19.050102 c 0.47025,0 0.9405,0 1.425,0 -0.21375,1.35375 -0.21375,1.35375 -0.855,1.995 -0.28215,-0.1881 -0.5643,-0.3762 -0.855,-0.57 0.09405,-0.47025 0.1881,-0.9405 0.285,-1.425 z"
     fill="#557dd4"
     id="path1720"
     style="stroke-width:0.285" />
  <path
     d="m 56.216116,19.620102 c 0,0.28215 0,0.5643 0,0.855 -0.65835,0 -1.3167,0 -1.995,0 -0.09405,-0.28215 -0.1881,-0.5643 -0.285,-0.855 0.87,-0.279643 1.409999,-0.279643 2.28,0 z"
     fill="#fcfbfd"
     id="path1722"
     style="stroke-width:0.285" />
  <path
     d="m 19.166116,14.205102 c 0.09405,0 0.1881,0 0.285,0 0,1.03455 0,2.0691 0,3.135 -0.28215,0 -0.5643,0 -0.855,0 -0.01539,-0.41551 -0.02641,-0.831182 -0.03562,-1.246875 -0.0099,-0.347177 -0.0099,-0.347177 -0.02004,-0.701367 0.05567,-0.616758 0.05567,-0.616758 0.62567,-1.186758 z"
     fill="#3d6dd0"
     id="path1724"
     style="stroke-width:0.285" />
  <path
     d="m 42.001741,14.454477 c 0.270398,0.01176 0.540787,0.02351 0.819375,0.03562 -0.855,0.57 -0.855,0.57 -1.425,0.57 -0.1881,0.9405 -0.3762,1.881 -0.57,2.85 -0.09405,0 -0.1881,0 -0.285,0 -0.01539,-0.463022 -0.02641,-0.926189 -0.03562,-1.389375 -0.0067,-0.257903 -0.0132,-0.515805 -0.02005,-0.781523 0.09063,-1.105293 0.44402,-1.241836 1.516285,-1.284727 z"
     fill="#e2f4fe"
     id="path1726"
     style="stroke-width:0.285" />
  <path
     d="m 53.936116,18.195102 c 0.409421,-0.02317 0.819213,-0.03971 1.229062,-0.05344 0.342219,-0.01488 0.342219,-0.01488 0.691344,-0.03006 0.780966,0.101161 1.012728,0.33819 1.499594,0.938496 -0.516781,-0.03236 -1.033306,-0.06872 -1.549688,-0.106875 -0.43149,-0.02975 -0.43149,-0.02975 -0.871701,-0.06012 -0.235486,-0.03894 -0.470981,-0.07789 -0.713611,-0.11801 -0.09405,-0.1881 -0.1881,-0.3762 -0.285,-0.57 z"
     fill="#426fc7"
     id="path1728"
     style="stroke-width:0.285" />
  <path
     d="m 76.451116,12.495102 c 2.20875,0.249375 2.20875,0.249375 2.85,0.57 0,0.28215 0,0.5643 0,0.855 -2.157859,-0.529286 -2.157859,-0.529286 -2.85,-1.425 z"
     fill="#2a2a2a"
     id="path1730"
     style="stroke-width:0.285" />
  <path
     d="m 20.591116,11.355102 c 0.961875,-0.03562 0.961875,-0.03562 1.995,0 0.1881,0.1881 0.3762,0.3762 0.57,0.57 -0.09405,0.1881 -0.1881,0.3762 -0.285,0.57 -0.65835,-0.09405 -1.3167,-0.1881 -1.995,-0.285 -0.09405,-0.28215 -0.1881,-0.5643 -0.285,-0.855 z"
     fill="#5679ce"
     id="path1732"
     style="stroke-width:0.285" />
  <path
     d="m 162.80611,3.3751023 c 0.96188,0.07125 0.96188,0.07125 1.995,0.285 0.55359,0.7220731 0.57,1.0778339 0.57,1.995 -0.1881,0 -0.3762,0 -0.57,0 -0.12932,-0.2174911 -0.25864,-0.4349813 -0.39187,-0.6590625 -0.46463,-0.7684142 -0.86138,-1.1349612 -1.60313,-1.6209375 z"
     fill="#4372ce"
     id="path1734"
     style="stroke-width:0.285" />
  <path
     d="m 43.391116,18.195102 c -0.09405,0.3762 -0.1881,0.7524 -0.285,1.14 -0.65835,0 -1.3167,0 -1.995,0 0,-0.1881 0,-0.3762 0,-0.57 1.63875,-0.57 1.63875,-0.57 2.28,-0.57 z"
     fill="#4970cf"
     id="path1736"
     style="stroke-width:0.285" />
  <path
     d="m 24.296116,13.920102 c 0.28215,0.09405 0.5643,0.1881 0.855,0.285 0,0.47025 0,0.9405 0,1.425 -0.3762,0.09405 -0.7524,0.1881 -1.14,0.285 -0.01216,-0.569871 -0.01159,-1.140119 0,-1.71 0.09405,-0.09405 0.1881,-0.1881 0.285,-0.285 z"
     fill="#5d84d9"
     id="path1738"
     style="stroke-width:0.285" />
  <path
     d="m 23.441116,11.070102 c 0.09405,0.28215 0.1881,0.5643 0.285,0.855 -0.157244,-0.04665 -0.314479,-0.09332 -0.476482,-0.141387 -0.739366,-0.16003 -1.404053,-0.171369 -2.159768,-0.161425 -0.38134,0.0039 -0.38134,0.0039 -0.770393,0.0078 -0.192508,0.0033 -0.385016,0.0066 -0.583357,0.01002 1.133473,-1.133471 2.198081,-0.830813 3.705,-0.57 z"
     fill="#ddeefc"
     id="path1740"
     style="stroke-width:0.285" />
  <path
     d="m 54.221116,14.775102 c 0.47025,0 0.9405,0 1.425,0 -0.09405,0.47025 -0.1881,0.9405 -0.285,1.425 -0.3762,-0.09405 -0.7524,-0.1881 -1.14,-0.285 0,-0.3762 0,-0.7524 0,-1.14 z"
     fill="#fdfcfc"
     id="path1742"
     style="stroke-width:0.285" />
  <path
     d="m 65.621116,11.070102 c 0.28215,0.3762 0.5643,0.7524 0.855,1.14 -0.28215,0 -0.5643,0 -0.855,0 0,0.47025 0,0.9405 0,1.425 -0.855,-1.033125 -0.855,-1.033125 -0.855,-1.995 0.28215,0 0.5643,0 0.855,0 0,-0.1881 0,-0.3762 0,-0.57 z"
     fill="#ecf9fc"
     id="path1744"
     style="stroke-width:0.285" />
  <path
     d="m 2.9211162,27.600102 c 0.65835,0.1881 1.3167,0.3762 1.995,0.57 0,0.1881 0,0.3762 0,0.57 0.47025,0 0.9405,0 1.4250002,0 -0.445313,0.35625 -0.445313,0.35625 -1.1400002,0.57 -0.9456395,-0.363388 -1.8188225,-0.787652 -2.28,-1.71 z"
     fill="#4a72cf"
     id="path1746"
     style="stroke-width:0.285" />
  <path
     d="m 53.651116,17.055102 c 0.7524,0.09405 1.5048,0.1881 2.28,0.285 -0.09405,0.28215 -0.1881,0.5643 -0.285,0.855 -0.5643,0 -1.1286,0 -1.71,0 -0.09405,-0.3762 -0.1881,-0.7524 -0.285,-1.14 z"
     fill="#ddeefe"
     id="path1748"
     style="stroke-width:0.285" />
  <path
     d="m 75.881116,12.780102 c 0.477498,0.08152 0.953002,0.176077 1.425,0.285 -1.318125,1.14 -1.318125,1.14 -2.28,1.14 0.534375,-1.104375 0.534375,-1.104375 0.855,-1.425 z"
     fill="#060606"
     id="path1750"
     style="stroke-width:0.285" />
  <path
     d="m 17.456116,14.775102 c 0.28215,0 0.5643,0 0.855,0 -0.166991,1.753418 -0.166991,1.753418 -0.285,2.28 -0.28215,0.141075 -0.28215,0.141075 -0.57,0.285 0,-0.84645 0,-1.6929 0,-2.565 z"
     fill="#f8fdfe"
     id="path1752"
     style="stroke-width:0.285" />
  <path
     d="m 32.276116,13.635102 c 0.819375,-0.05344 0.819375,-0.05344 1.71,0 0.1881,0.28215 0.3762,0.5643 0.57,0.855 -0.1881,0.1881 -0.3762,0.3762 -0.57,0.57 0,-0.1881 0,-0.3762 0,-0.57 -0.84645,-0.141075 -0.84645,-0.141075 -1.71,-0.285 0,-0.1881 0,-0.3762 0,-0.57 z"
     fill="#3e6bc9"
     id="path1754"
     style="stroke-width:0.285" />
  <path
     d="m 52.511116,18.195102 c 0.28215,0.09405 0.5643,0.1881 0.855,0.285 -0.09993,0.158709 -0.199861,0.317419 -0.302813,0.480938 -0.32945,0.812639 -0.212942,1.253336 0.01786,2.084062 -0.3762,-0.1881 -0.7524,-0.3762 -1.14,-0.57 0.1881,-0.7524 0.3762,-1.5048 0.57,-2.28 z"
     fill="#d5eafb"
     id="path1756"
     style="stroke-width:0.285" />
  <path
     d="m 27.146116,13.635102 c 0.1881,0 0.3762,0 0.57,0 0.09405,0.5643 0.1881,1.1286 0.285,1.71 -0.28215,0.1881 -0.5643,0.3762 -0.855,0.57 0,-0.7524 0,-1.5048 0,-2.28 z"
     fill="#386cce"
     id="path1758"
     style="stroke-width:0.285" />
  <path
     d="m 23.156116,13.635102 c 0.28215,0.09405 0.5643,0.1881 0.855,0.285 -0.08901,0.552188 -0.08901,0.552188 -0.285,1.14 -0.28215,0.09405 -0.5643,0.1881 -0.855,0.285 -0.01216,-0.474844 -0.01159,-0.950142 0,-1.425 0.09405,-0.09405 0.1881,-0.1881 0.285,-0.285 z"
     fill="#fbfcfe"
     id="path1760"
     style="stroke-width:0.285" />
  <path
     d="m 17.171116,15.060102 c 0.09405,0 0.1881,0 0.285,0 0.01729,0.175242 0.03449,0.350484 0.05234,0.531035 0.02385,0.230349 0.04779,0.460699 0.07239,0.698028 0.02318,0.228144 0.04626,0.456289 0.07011,0.691347 0.07666,0.690439 0.07666,0.690439 0.375174,1.49959 -0.28215,0 -0.5643,0 -0.855,0 0,-1.1286 0,-2.2572 0,-3.42 z"
     fill="#d5ecfe"
     id="path1762"
     style="stroke-width:0.285" />
  <path
     d="m 55.361116,13.920102 c 0.5643,0 1.1286,0 1.71,0 -0.1881,0.47025 -0.3762,0.9405 -0.57,1.425 -0.1881,-0.09405 -0.3762,-0.1881 -0.57,-0.285 0,-0.1881 0,-0.3762 0,-0.57 -0.1881,0 -0.3762,0 -0.57,0 0,-0.1881 0,-0.3762 0,-0.57 z"
     fill="#3c71d7"
     id="path1764"
     style="stroke-width:0.285" />
  <path
     d="m 22.871116,12.495102 c 0.3762,0.28215 0.7524,0.5643 1.14,0.855 -0.09405,0.1881 -0.1881,0.3762 -0.285,0.57 -0.1881,0 -0.3762,0 -0.57,0 -0.1881,0.28215 -0.3762,0.5643 -0.57,0.855 0.09405,-0.7524 0.1881,-1.5048 0.285,-2.28 z"
     fill="#d6eafa"
     id="path1766"
     style="stroke-width:0.285" />
  <path
     d="m 102.38611,12.495102 c 1.63875,-0.03562 1.63875,-0.03562 2.28,0.285 0,0.28215 0,0.5643 0,0.855 -0.3762,-0.09405 -0.7524,-0.1881 -1.14,-0.285 0,-0.1881 0,-0.3762 0,-0.57 -0.3762,-0.09405 -0.7524,-0.1881 -1.14,-0.285 z"
     fill="#323232"
     id="path1768"
     style="stroke-width:0.285" />
  <path
     d="m 163.37611,3.9451023 c 0.53438,0.178125 0.53438,0.178125 1.14,0.57 0.35625,0.890625 0.35625,0.890625 0.57,1.71 -1.368,-0.9821537 -1.368,-0.9821537 -1.65656,-1.78125 -0.0177,-0.1645875 -0.0352,-0.329175 -0.0535,-0.49875 z"
     fill="#ddf0fe"
     id="path1770"
     style="stroke-width:0.285" />
  <path
     d="m 4.0611162,3.3751023 c 0.1881,0 0.3762,0 0.57,0 0.09405,0.28215 0.1881,0.5643 0.285,0.855 -0.1881,0 -0.3762,0 -0.57,0 -0.1881,0.47025 -0.3762,0.9405 -0.57,1.425 -0.3442135,-1.032631 -0.1547835,-1.3228171 0.285,-2.28 z"
     fill="#4874d8"
     id="path1772"
     style="stroke-width:0.285" />
</svg>
